<?xml version="1.0" encoding="iso-8859-1"?>
<!-- Uploaded to: SVG Repo, www.svgrepo.com, Generator: SVG Repo Mixer Tools -->
<svg fill="#fff" height="800px" width="800px" version="1.1" id="Layer_1" xmlns="http://www.w3.org/2000/svg" xmlns:xlink="http://www.w3.org/1999/xlink"
	 viewBox="0 0 512.019 512.019" xml:space="preserve">
<g transform="translate(0 -1)">
	<g>
		<g>
			<path d="M110.933,201.543c28.237,0,51.2-22.963,51.2-51.2s-22.963-51.2-51.2-51.2c-28.237,0-51.2,22.963-51.2,51.2
				S82.697,201.543,110.933,201.543z"/>
			<path d="M281.6,201.543c28.237,0,51.2-22.963,51.2-51.2s-22.963-51.2-51.2-51.2c-28.237,0-51.2,22.963-51.2,51.2
				S253.363,201.543,281.6,201.543z"/>
			<path d="M497.562,339.543c-14.455-9.754-33.169-7.927-45.5,4.412c-2.202,2.193-7.586,2.654-11.708,2.654h-1.289
				c8.175-9.088,13.201-21.069,13.201-34.236v-17.51c0-46.754-38.033-84.787-84.787-84.787H68.267
				c-23.526,0-42.667,19.14-42.667,42.667v17.067h42.667c4.71,0,8.533,3.814,8.533,8.533s-3.823,8.533-8.533,8.533H25.6v17.067h76.8
				c4.71,0,8.533,3.814,8.533,8.533s-3.823,8.533-8.533,8.533H25.6c0,9.643,3.337,18.449,8.755,25.6H8.533
				c-4.71,0-8.533,3.814-8.533,8.533c0,32.93,26.795,59.733,59.733,59.733h380.621c23.066,0,41.088-3.746,59.682-22.409
				c3.977-3.994,7.066-8.559,9.19-13.568C515.533,364.017,510.95,348.563,497.562,339.543z M493.508,372.252
				c-1.263,2.987-3.132,5.734-5.564,8.166c-12.945,12.996-24.96,17.391-47.59,17.391H59.733c-20.608,0-37.845-14.686-41.805-34.133
				h50.338h332.706h39.381c10.991,0,18.543-2.432,23.765-7.646c7.62-7.603,17.493-6.656,23.902-2.338
				C490.462,355.339,498.057,361.517,493.508,372.252z"/>
		</g>
	</g>
</g>
</svg>
