<?xml version="1.0" encoding="UTF-8" standalone="no"?>
<!-- Uploaded to: SVG Repo, www.svgrepo.com, Generator: SVG Repo Mixer Tools -->

<svg
   width="450"
   height="237.5"
   viewBox="0 0 288 152"
   version="1.1"
   id="svg1"
   xmlns="http://www.w3.org/2000/svg"
   xmlns:svg="http://www.w3.org/2000/svg">
  <defs
     id="defs1" />
  <path
     fill="#ffffff"
     d="M 64,0 C 32,0 0,4 0,12 l 16,128 c 16,16 80,16 96,0 L 128,12 C 128,4 96,0 64,0 Z m 160,0 c -32,0 -64,4 -64,12 l 16,128 c 16,16 80,16 96,0 L 288,12 C 288,4 256,0 224,0 Z m 0,55.5 c 5.7,0 11.4,0.8 16.5,2.4 0.2,19 0.3,39.8 0.3,39.8 L 253,64.5 c 4,3.4 6.6,8 7,13.5 l -4,46 c 0,16 -64,16 -64,0 l -4,-46 c 1,-15 18.5,-22.5 36,-22.5 z m -160,30 c 5.8,0 11.5,0.9 16.6,2.7 0.1,12 0.2,25.5 0.2,25.5 L 88.6,92.3 C 94,96 97.5,101.2 98,108 l -2,16 c 0,16 -64,16 -64,0 L 30,108 C 31,93 47.5,85.5 64,85.5 Z"
     id="path1" />
</svg>
