<?xml version="1.0" encoding="iso-8859-1"?>
<!-- Uploaded to: SVG Repo, www.svgrepo.com, Generator: SVG Repo Mixer Tools -->
<svg fill="#000000" height="800px" width="800px" version="1.1" id="Layer_1" xmlns="http://www.w3.org/2000/svg" xmlns:xlink="http://www.w3.org/1999/xlink" 
	 viewBox="0 0 450.719 450.719" xml:space="preserve">
<g>
	<g>
		<g>
			<circle cx="203.832" cy="63.401" r="35.547"/>
			<path d="M178.261,150.414c2.817,11.455,24.544,99.802,27.236,110.746l-7.94,28.11l-69.295-12.265
				c-11.244-1.992-21.891,5.596-23.854,16.68c-1.981,11.193,5.487,21.873,16.68,23.854l87.628,15.509
				c10.412,1.842,20.521-4.503,23.394-14.672c19.912-70.494,18.427-64.795,18.709-67.36l8.474-2.084
				c0.863,1.258-2.676-3.229,38.507,48.354l-51.723,60.073c-7.416,8.614-6.445,21.61,2.169,29.026
				c8.611,7.415,21.606,6.448,29.026-2.168l62.858-73.006c6.458-7.5,6.662-18.536,0.486-26.271
				c-50.088-62.735-48.514-61.25-51.348-63.565c-2.441-9.924-21.523-87.518-24.371-99.1l69.94-94.951
				c5.618-7.626,3.989-18.364-3.638-23.981c-7.625-5.617-18.363-3.99-23.981,3.638l-70.695,95.976
				c-1.004,0.201-43.122,10.44-45.597,11.398l-86.662-88.222c-6.638-6.757-17.498-6.854-24.255-0.216
				c-6.757,6.638-6.854,17.498-0.216,24.255L178.261,150.414z"/>
			<path d="M330.446,346.113l-38.019,44.156c-7.717,8.961-18.929,14.101-30.761,14.102c-9.709,0-19.109-3.491-26.469-9.829
				c-14.9-12.828-18.184-34.203-8.859-50.707c-4.407,1.637-9.137,2.531-14.018,2.531c-2.365,0-4.75-0.21-7.089-0.624l-30.832-5.457
				c-81.297,5.32-141.03,23.054-141.03,44.115c0,11.006,16.315,21.103,43.49,28.996v22.323c0,8.284,6.716,15,15,15s15-6.716,15-15
				v-15.323c32.635,6.108,73.782,9.751,118.5,9.751s85.865-3.643,118.5-9.751v15.323c0,8.284,6.716,15,15,15s15-6.716,15-15v-22.323
				c27.176-7.893,43.49-17.99,43.49-28.996C417.349,368.38,382.776,354.285,330.446,346.113z"/>
		</g>
	</g>
</g>
</svg>