<?xml version="1.0" encoding="utf-8"?><!-- Uploaded to: SVG Repo, www.svgrepo.com, Generator: SVG Repo Mixer Tools -->
<svg fill="#000000" width="800px" height="800px" viewBox="0 0 24 24" id="trampoline-2" data-name="Line Color" xmlns="http://www.w3.org/2000/svg" class="icon line-color"><line id="secondary" x1="12" y1="3" x2="12" y2="5" style="fill: none; stroke: rgb(44, 169, 188); stroke-linecap: round; stroke-linejoin: round; stroke-width: 2;"></line><path id="secondary-2" data-name="secondary" d="M18,3l-.21.11A3.21,3.21,0,0,0,16,6h0" style="fill: none; stroke: rgb(44, 169, 188); stroke-linecap: round; stroke-linejoin: round; stroke-width: 2;"></path><path id="secondary-3" data-name="secondary" d="M6,3l.21.11A3.21,3.21,0,0,1,8,6H8" style="fill: none; stroke: rgb(44, 169, 188); stroke-linecap: round; stroke-linejoin: round; stroke-width: 2;"></path><line id="primary" x1="18.83" y1="13.96" x2="20" y2="21" style="fill: none; stroke: rgb(0, 0, 0); stroke-linecap: round; stroke-linejoin: round; stroke-width: 2;"></line><line id="primary-2" data-name="primary" x1="5.17" y1="13.96" x2="4" y2="21" style="fill: none; stroke: rgb(0, 0, 0); stroke-linecap: round; stroke-linejoin: round; stroke-width: 2;"></line><path id="primary-3" data-name="primary" d="M12,15v4m9-7c0-1.66-4-3-9-3s-9,1.34-9,3,4,3,9,3S21,13.66,21,12Z" style="fill: none; stroke: rgb(0, 0, 0); stroke-linecap: round; stroke-linejoin: round; stroke-width: 2;"></path></svg>