<?xml version="1.0" encoding="UTF-8" standalone="no"?>
<!-- Uploaded to: SVG Repo, www.svgrepo.com, Generator: SVG Repo Mixer Tools -->

<svg
   version="1.1"
   id="Icons"
   viewBox="0 0 32 32"
   xml:space="preserve"
   sodipodi:docname="ice-skate-iceskating-svgrepo-com.5.svg"
   inkscape:export-filename="ice-skate-iceskating-svgrepo-com.2.svg"
   inkscape:export-xdpi="96"
   inkscape:export-ydpi="96"
   inkscape:version="1.3.2 (091e20e, 2023-11-25, custom)"
   xmlns:inkscape="http://www.inkscape.org/namespaces/inkscape"
   xmlns:sodipodi="http://sodipodi.sourceforge.net/DTD/sodipodi-0.dtd"
   xmlns="http://www.w3.org/2000/svg"
   xmlns:svg="http://www.w3.org/2000/svg"><defs
   id="defs4" /><sodipodi:namedview
   id="namedview4"
   pagecolor="#ffffff"
   bordercolor="#000000"
   borderopacity="0.25"
   inkscape:showpageshadow="2"
   inkscape:pageopacity="0.0"
   inkscape:pagecheckerboard="0"
   inkscape:deskcolor="#d1d1d1"
   inkscape:zoom="25.3125"
   inkscape:cx="16"
   inkscape:cy="15.980247"
   inkscape:window-width="1920"
   inkscape:window-height="1009"
   inkscape:window-x="1912"
   inkscape:window-y="-8"
   inkscape:window-maximized="1"
   inkscape:current-layer="Icons" />
<style
   type="text/css"
   id="style1">
	.st0{fill:none;stroke:#ffffff;stroke-width:2;stroke-linecap:round;stroke-linejoin:round;stroke-miterlimit:10;}
</style>
<g
   id="g1"
   style="fill:#ffffff;fill-opacity:1">
	<path
   d="M29,29H8c-3.3,0-6-2.7-6-6c0-0.6,0.4-1,1-1s1,0.4,1,1c0,2.2,1.8,4,4,4h21c0.6,0,1,0.4,1,1S29.6,29,29,29z"
   id="path1"
   style="fill:#ffffff;fill-opacity:1" />
</g>
<g
   id="g2"
   style="fill:#ffffff;fill-opacity:1">
	<path
   d="M23,29c-0.6,0-1-0.4-1-1v-5c0-0.6,0.4-1,1-1s1,0.4,1,1v5C24,28.6,23.6,29,23,29z"
   id="path2"
   style="fill:#ffffff;fill-opacity:1" />
</g>
<g
   id="g3"
   style="fill:#ffffff;fill-opacity:1">
	<path
   d="M11,29c-0.6,0-1-0.4-1-1v-5c0-0.6,0.4-1,1-1s1,0.4,1,1v5C12,28.6,11.6,29,11,29z"
   id="path3"
   style="fill:#ffffff;fill-opacity:1" />
</g>
<path
   d="M26.2,11.9L26,11.7V7c0-0.6-0.4-1-1-1h-2v2c0,0.6-0.4,1-1,1s-1-0.4-1-1V6c-0.3-1.2-1.2-2.2-2.3-2.8l-2.2-1.1  c-0.3-0.2-0.7-0.1-1,0S15,2.7,15,3v5.6c0,1,0,1.9-0.3,2.6l3,3c0.4,0.4,0.4,1,0,1.4C17.5,15.9,17.3,16,17,16s-0.5-0.1-0.7-0.3  l-2.9-2.9c-0.2,0.1-0.5,0.3-0.8,0.4L11,13.6l2.7,2.7c0.4,0.4,0.4,1,0,1.4C13.5,17.9,13.3,18,13,18s-0.5-0.1-0.7-0.3l-3.4-3.4  l-3.1,0.9C3.6,15.8,2,17.8,2,20.2V23c0,0.6,0.4,1,1,1h9.3c1,0,2.1-0.2,3.1-0.5l3.6-1.1V23c0,0.6,0.4,1,1,1h7c0.6,0,1-0.4,1-1v-4  C28,16,27.5,13.9,26.2,11.9z"
   id="path4"
   style="fill:#ffffff;fill-opacity:1" />
</svg>
